<?xml version="1.0" standalone="no"?>
<!DOCTYPE svg PUBLIC "-//W3C//DTD SVG 1.1//EN" "http://www.w3.org/Graphics/SVG/1.1/DTD/svg11.dtd" >
<svg xmlns="http://www.w3.org/2000/svg">
<metadata></metadata>
<defs>
<font id="vegurbold" horiz-adv-x="1142" >
<font-face units-per-em="2048" ascent="1577" descent="-471" />
<missing-glyph horiz-adv-x="401" />
<glyph horiz-adv-x="2048" />
<glyph horiz-adv-x="2048" />
<glyph unicode="&#xd;" horiz-adv-x="2048" />
<glyph unicode=" "  horiz-adv-x="401" />
<glyph unicode="&#x09;" horiz-adv-x="401" />
<glyph unicode="&#xa0;" horiz-adv-x="401" />
<glyph unicode="!" horiz-adv-x="593" d="M135 141q0 67 47.5 114.5t114.5 47.5t114.5 -47.5t47.5 -114.5t-47 -114t-115 -47t-115 47t-47 114zM166 1389h262l-16 -983h-230z" />
<glyph unicode="&#x22;" horiz-adv-x="823" d="M90 1368q-2 35 26.5 54.5t80.5 19.5h151l-47 -576h-201zM492 1368q-2 35 26 54.5t80 19.5h152l-48 -576h-200z" />
<glyph unicode="#" horiz-adv-x="1105" d="M70 410v151h206l37 223h-186v152h211l55 340h170l-55 -340h174l55 340h170l-55 -340h184v-152h-209l-34 -223h186v-151h-213l-53 -338h-172l55 338h-174l-53 -338h-172l55 338h-182zM449 561h172l36 223h-174z" />
<glyph unicode="$" d="M156 141l26 213q184 -82 344 -82q80 0 127 36.5t47 99.5q0 61 -44.5 96.5t-147.5 64.5q-166 46 -250 130t-84 221q0 125 75.5 212t207.5 123v236h200v-219q159 -12 271 -74l-29 -213q-145 74 -283 74q-69 0 -114 -28.5t-45 -72.5q0 -56 37 -87.5t135 -59.5 q177 -52 265.5 -137.5t88.5 -227.5q0 -147 -91.5 -246t-246.5 -130v-213h-201v204q-167 13 -288 80z" />
<glyph unicode="%" horiz-adv-x="1740" d="M104 1020q0 153 100 250.5t247 97.5t246.5 -97.5t99.5 -250.5t-99.5 -250.5t-246.5 -97.5t-247 97.5t-100 250.5zM299 -41l942 1450h201l-942 -1450h-201zM334 1020q0 -69 33.5 -108.5t83.5 -39.5t83 39.5t33 108.5t-33 108t-83 39t-83.5 -39t-33.5 -108zM944 328 q0 153 99.5 250.5t246.5 97.5t246.5 -97.5t99.5 -250.5t-99.5 -250.5t-246.5 -97.5t-246.5 97.5t-99.5 250.5zM1174 328q0 -69 33 -108.5t83 -39.5t83.5 39.5t33.5 108.5t-33.5 108t-83.5 39t-83 -39t-33 -108z" />
<glyph unicode="&#x26;" horiz-adv-x="1484" d="M74 383q0 135 82 232t247 186v4q-69 64 -111 133.5t-42 163.5q0 136 114.5 221.5t280.5 85.5q163 0 271 -91t108 -218q0 -201 -246 -338v-4l258 -301h4q28 37 47.5 102.5t22.5 136.5h272q-11 -262 -172 -436l230 -260h-369l-70 90h-4q-77 -52 -184 -81t-223 -29 q-234 0 -375 108t-141 295zM369 397q0 -88 70.5 -143t178.5 -55q63 0 127 19t103 48v4l-293 361h-4q-88 -46 -135 -99t-47 -135zM537 1092q0 -84 92 -156h4q104 64 104 147q0 52 -27.5 82.5t-72.5 30.5q-43 0 -71.5 -30t-28.5 -74z" />
<glyph unicode="'" horiz-adv-x="421" d="M90 1368q-2 35 26.5 54.5t80.5 19.5h151l-47 -576h-201z" />
<glyph unicode="(" horiz-adv-x="636" d="M141 629q0 228 63.5 446.5t157.5 374.5h201q-94 -218 -135 -410.5t-41 -410.5q0 -219 41 -411.5t135 -410.5h-201q-94 156 -157.5 375t-63.5 447z" />
<glyph unicode=")" horiz-adv-x="636" d="M74 -193q94 218 135 410.5t41 411.5q0 218 -41 410.5t-135 410.5h200q95 -156 158.5 -374.5t63.5 -446.5t-63.5 -447t-158.5 -375h-200z" />
<glyph unicode="*" horiz-adv-x="1052" d="M94 987l70 209l287 -137h8l-43 321h221l-43 -321h8l287 137l69 -209l-317 -61v-4l221 -232l-180 -131l-154 281h-4l-153 -281l-181 131l222 232v4z" />
<glyph unicode="+" horiz-adv-x="1216" d="M92 424v201h402v424h229v-424h401v-201h-401v-424h-229v424h-402z" />
<glyph unicode="," horiz-adv-x="534" d="M-18 -338q90 286 141 494q24 100 147 100h170q-88 -268 -215 -567z" />
<glyph unicode="-" horiz-adv-x="802" d="M119 424v201h565v-201h-565z" />
<glyph unicode="." horiz-adv-x="512" d="M94 141q0 67 47 114.5t115 47.5t115 -47.5t47 -114.5t-47 -114t-115 -47t-115 47t-47 114z" />
<glyph unicode="/" horiz-adv-x="870" d="M-10 -76l641 1510h250l-641 -1510h-250z" />
<glyph unicode="0" d="M41 674q0 319 143 506.5t387 187.5t387.5 -188t143.5 -506t-143.5 -506t-387.5 -188t-387 187.5t-143 506.5zM336 674q0 -245 56 -360t179 -115q124 0 180 115t56 360t-56 360t-180 115q-123 0 -179 -115t-56 -360z" />
<glyph unicode="1" d="M207 1151l455 197h137v-1348h-275v1034l-291 -96z" />
<glyph unicode="2" d="M119 0v215l231 236q245 249 315 341.5t70 178.5q0 80 -57.5 129t-163.5 49q-127 0 -289 -64l-28 218q184 65 372 65q206 0 333.5 -102t127.5 -265q0 -78 -18 -142t-65 -133t-104.5 -131.5t-158.5 -160.5l-217 -211v-4h567v-219h-915z" />
<glyph unicode="3" d="M90 59l29 217q168 -77 340 -77q119 0 197.5 44.5t78.5 133.5q0 86 -81 134t-230 56v213q123 2 196.5 54t73.5 139q0 81 -62.5 128.5t-158.5 47.5q-139 0 -270 -55l-27 213q199 61 365 61q213 0 330.5 -85.5t117.5 -233.5q0 -68 -25.5 -125t-69 -96t-96.5 -64.5 t-114 -38.5v-4q155 -24 250.5 -109t95.5 -219q0 -97 -47 -176.5t-126 -130.5t-180 -78.5t-212 -27.5q-97 0 -200 20t-175 59z" />
<glyph unicode="4" d="M20 276v224l510 848h402v-852h203v-220h-203v-276h-275v276h-637zM309 496h348v323q0 154 11 297h-4q-75 -171 -355 -616v-4z" />
<glyph unicode="5" d="M109 55l28 217q180 -73 352 -73q121 0 194 60t73 165q0 92 -57 151.5t-160 59.5q-81 0 -142 -43l-241 6l24 750h809v-220h-557l-12 -305h6q62 39 164 39q211 0 336 -113t125 -300q0 -117 -47 -208.5t-127 -147.5t-179.5 -84.5t-212.5 -28.5q-98 0 -200 19.5t-176 55.5z " />
<glyph unicode="6" d="M88 522q0 173 62.5 326.5t169 263t252 176.5t307.5 76l28 -217q-197 -17 -332 -121t-188 -276h4q35 42 105 67t135 25q191 0 309.5 -116t118.5 -288q0 -111 -41.5 -200.5t-111.5 -146t-159 -86.5t-188 -30q-97 0 -181 34.5t-149.5 100t-103 172t-37.5 240.5zM383 473 q0 -123 55 -198.5t140 -75.5q80 0 133 59.5t53 149.5q0 107 -52 166t-145 59q-72 0 -128 -45t-56 -115z" />
<glyph unicode="7" d="M125 1128v220h934v-222l-545 -1126h-283l551 1124v4h-657z" />
<glyph unicode="8" d="M86 356q0 228 287 334v4q-115 61 -171.5 135.5t-56.5 180.5q0 69 31 133.5t87 114.5t140.5 80t184.5 30q199 0 317.5 -99t118.5 -243q0 -192 -240 -313v-4q271 -128 271 -332q0 -99 -41.5 -177t-111.5 -125t-155.5 -71t-179.5 -24q-212 0 -346.5 100.5t-134.5 275.5z M377 397q0 -86 53.5 -142t140.5 -56t140 50t53 128q0 75 -45 127.5t-152 97.5q-95 -34 -142.5 -82t-47.5 -123zM432 1006q0 -114 156 -195q151 74 151 199q0 64 -43.5 105.5t-113.5 41.5q-67 0 -108.5 -45.5t-41.5 -105.5z" />
<glyph unicode="9" d="M84 901q0 111 41.5 200.5t111.5 146t159 86.5t188 30q97 0 181 -34.5t149.5 -100t103 -172t37.5 -240.5q0 -173 -62.5 -326.5t-169 -263t-252 -176.5t-307.5 -76l-28 218q197 17 332 121t188 276h-4q-35 -42 -105 -67t-135 -25q-191 0 -309.5 115.5t-118.5 287.5z M379 932q0 -107 51.5 -166t144.5 -59q72 0 128.5 44.5t56.5 114.5q0 123 -55.5 199t-139.5 76q-80 0 -133 -59.5t-53 -149.5z" />
<glyph unicode=":" horiz-adv-x="512" d="M94 141q0 67 47 114.5t115 47.5t115 -47.5t47 -114.5t-47 -114t-115 -47t-115 47t-47 114zM94 850q0 68 47 115t115 47t115 -47t47 -115t-47 -115t-115 -47t-115 47t-47 115z" />
<glyph unicode=";" horiz-adv-x="552" d="M-18 -338q90 286 141 494q24 100 147 100h170q-88 -268 -215 -567zM135 850q0 68 47.5 115t114.5 47t114.5 -47t47.5 -115t-47.5 -115t-114.5 -47t-114.5 47t-47.5 115z" />
<glyph unicode="&#x3c;" horiz-adv-x="962" d="M63 412v258l791 401v-258l-571 -268v-6l571 -271v-258z" />
<glyph unicode="=" horiz-adv-x="1361" d="M141 205v201h1080v-201h-1080zM141 643v201h1080v-201h-1080z" />
<glyph unicode="&#x3e;" horiz-adv-x="962" d="M109 10v258l571 271v6l-571 268v258l790 -401v-258z" />
<glyph unicode="?" horiz-adv-x="905" d="M53 1337q160 72 367 72q184 0 297.5 -95.5t113.5 -248.5q0 -58 -12 -105.5t-46.5 -101.5t-69 -96.5t-105.5 -122.5q-57 -65 -77.5 -108t-20.5 -95v-30h-267v32q0 96 34.5 172t123.5 168q74 77 110 140.5t36 125.5t-49.5 104t-147.5 42q-140 0 -258 -66zM209 141 q0 -67 47 -114t115 -47q67 0 114 47t47 114q0 68 -47 115t-114 47t-114.5 -47.5t-47.5 -114.5z" />
<glyph unicode="@" horiz-adv-x="1841" d="M113 367q0 154 49 290t136.5 238.5t204 177t255 112.5t286.5 38q135 0 252.5 -46.5t198 -126.5t126.5 -187.5t46 -227.5q0 -251 -121 -392t-307 -141q-201 0 -242 142h-4q-35 -72 -96.5 -114t-140.5 -42q-117 0 -195 84.5t-78 210.5q0 233 140.5 366.5t382.5 133.5 q75 0 155 -17.5t129 -40.5l-61 -407q-13 -90 10.5 -128t81.5 -38q76 0 127 96t51 234q0 225 -133.5 357t-392.5 132q-132 0 -256.5 -48t-221.5 -131.5t-155.5 -208t-58.5 -267.5q0 -256 145.5 -404.5t396.5 -148.5q93 0 202 28t198 76l18 -141q-214 -115 -489 -115 q-124 0 -240 48t-204.5 132t-141.5 208.5t-53 267.5zM729 418q0 -61 31.5 -98t75.5 -37q69 0 113.5 51t62.5 174l24 170q-30 10 -71 10q-103 0 -169.5 -69t-66.5 -201z" />
<glyph unicode="A" horiz-adv-x="1294" d="M29 0l479 1389h283l479 -1389h-291l-129 408h-420l-127 -408h-274zM494 627h292q-92 288 -143 508h-6q-51 -220 -143 -508z" />
<glyph unicode="B" horiz-adv-x="1169" d="M135 18v1350q253 31 410 31q239 0 371.5 -96t132.5 -252q0 -106 -66.5 -186t-171.5 -117v-5q274 -83 274 -315q0 -142 -74.5 -242t-201.5 -148t-297 -48q-169 0 -377 28zM410 217q73 -8 151 -8q109 0 169.5 48t60.5 142q0 105 -58 156t-182 51h-141v-389zM410 817h135 q205 0 205 180q0 86 -50 134.5t-151 48.5q-69 0 -139 -11v-352z" />
<glyph unicode="C" horiz-adv-x="1280" d="M57 682q0 168 61 307t166 230t244.5 140.5t296.5 49.5q244 0 410 -66l-29 -219q-169 66 -358 66q-229 0 -362.5 -122.5t-133.5 -373.5q0 -240 131 -367.5t344 -127.5q196 0 363 69l29 -221q-170 -67 -447 -67q-149 0 -277 44.5t-226.5 129.5t-155 220.5t-56.5 307.5z" />
<glyph unicode="D" horiz-adv-x="1460" d="M135 16v1350q233 33 447 33q251 0 433.5 -70.5t285 -217.5t102.5 -361q0 -186 -66 -333t-182 -239t-268.5 -140t-331.5 -48q-245 0 -420 26zM410 215q99 -6 204 -6q101 0 188 29.5t156.5 88t109.5 156.5t40 226q0 228 -136.5 349.5t-373.5 121.5q-89 0 -188 -13v-952z " />
<glyph unicode="E" horiz-adv-x="1019" d="M135 0v1389h809v-220h-534v-342h464v-219h-464v-389h553v-219h-828z" />
<glyph unicode="F" horiz-adv-x="962" d="M135 0v1389h809v-220h-534v-364h464v-219h-464v-586h-275z" />
<glyph unicode="G" horiz-adv-x="1378" d="M57 672q0 172 62 313.5t167 233t242.5 141t290.5 49.5q244 0 410 -66l-29 -219q-184 66 -358 66q-226 0 -358 -125.5t-132 -370.5q0 -242 121 -368.5t315 -126.5q133 0 207 26v310h-250v219h525v-693q-206 -81 -498 -81q-119 0 -224 25.5t-195.5 80t-156 134.5 t-102.5 195.5t-37 256.5z" />
<glyph unicode="H" horiz-adv-x="1447" d="M135 0v1389h275v-564h628v564h275v-1389h-275v606h-628v-606h-275z" />
<glyph unicode="I" horiz-adv-x="544" d="M135 0v1389h275v-1389h-275z" />
<glyph unicode="J" horiz-adv-x="780" d="M-33 8l29 213q76 -22 166 -22q137 0 188 68t51 208v914h275v-902q0 -263 -134.5 -385t-377.5 -122q-111 0 -197 28z" />
<glyph unicode="K" horiz-adv-x="1218" d="M135 0v1389h275v-568h8l459 568h344l-590 -652l635 -737h-377l-432 545h-6l-41 -49v-496h-275z" />
<glyph unicode="L" horiz-adv-x="1050" d="M135 0v1389h275v-1178h624v-211h-899z" />
<glyph unicode="M" horiz-adv-x="1742" d="M129 0l47 1339h336l238 -669q101 -283 112 -400h6q10 106 115 400l242 669h336l47 -1339h-275l-12 670q-1 34 -1 67q0 143 11 260h-6q-35 -173 -92 -327l-234 -629h-286l-228 629q-71 196 -90 319h-6q12 -98 12 -222q0 -47 -2 -97l-12 -670h-258z" />
<glyph unicode="N" horiz-adv-x="1466" d="M129 0v1389h389l391 -734q93 -173 178 -387h7q-15 195 -15 387v734h258v-1389h-387l-405 754q-79 147 -166 364h-6q14 -252 14 -364v-754h-258z" />
<glyph unicode="O" horiz-adv-x="1540" d="M57 694q0 150 53.5 282t146.5 227t226.5 149.5t286.5 54.5t286.5 -54.5t226.5 -149.5t146.5 -227t53.5 -282t-53.5 -282.5t-146.5 -227t-226.5 -149.5t-286.5 -55t-286.5 55t-226.5 149.5t-146.5 227t-53.5 282.5zM358 694q0 -237 114 -366t298 -129t298 129t114 366 t-114 365.5t-298 128.5t-298 -128.5t-114 -365.5z" />
<glyph unicode="P" horiz-adv-x="1093" d="M135 0v1364q192 35 400 35q254 0 393 -112t139 -306q0 -96 -29 -177.5t-79.5 -138.5t-119.5 -97.5t-149 -59.5t-168 -19q-68 0 -112 5v-494h-275zM410 719q37 -2 108 -2q114 0 184 57.5t70 175.5q0 114 -63 172t-172 58q-59 0 -127 -9v-452z" />
<glyph unicode="Q" horiz-adv-x="1540" d="M57 694q0 150 53.5 282t146.5 227t226.5 149.5t286.5 54.5t286.5 -54.5t226.5 -149.5t146.5 -227t53.5 -282q0 -222 -113.5 -397t-304.5 -258l78 -291l-266 -65l-72 301q-20 -4 -35 -4q-153 0 -286.5 55t-226.5 149.5t-146.5 227t-53.5 282.5zM358 694q0 -237 114 -366 t298 -129t298 129t114 366t-114 365.5t-298 128.5t-298 -128.5t-114 -365.5z" />
<glyph unicode="R" d="M135 0v1364q186 33 420 33q256 0 391 -101.5t135 -263.5q0 -130 -77 -214.5t-189 -121.5v-4q76 -30 120 -98t71 -191q43 -193 110 -403h-303q-47 178 -90 381q-21 97 -60.5 138.5t-119.5 41.5h-133v-561h-275zM410 772h129q108 0 167.5 53.5t59.5 153.5q0 97 -54.5 148 t-158.5 51q-97 0 -143 -9v-397z" />
<glyph unicode="S" horiz-adv-x="1116" d="M92 33l29 221q179 -55 352 -55q118 0 190 48.5t72 135.5q0 82 -51.5 128.5t-157.5 76.5q-68 19 -122 41.5t-104 57t-83 77.5t-52.5 103t-19.5 132q0 101 41.5 181t112 129t159 74.5t187.5 25.5q208 0 330 -49l-29 -217q-125 47 -284 47q-104 0 -167 -41.5t-63 -118.5 q0 -83 53 -126.5t162 -74.5q91 -27 154.5 -57.5t116 -77t78.5 -112.5t26 -154q0 -107 -45 -193.5t-123 -141.5t-179.5 -84t-217.5 -29q-217 0 -365 53z" />
<glyph unicode="T" horiz-adv-x="1208" d="M31 1169v220h1147v-220h-439v-1169h-274v1169h-434z" />
<glyph unicode="U" horiz-adv-x="1316" d="M129 438v951h274v-930q0 -126 75 -194t186 -68q116 0 194 65t78 197v930h258v-912q0 -120 -42 -215.5t-115 -156.5t-169.5 -93t-208.5 -32q-149 0 -268 53.5t-190.5 158.5t-71.5 246z" />
<glyph unicode="V" horiz-adv-x="1214" d="M-8 1389h291l182 -572q99 -315 153 -557h7q72 309 153 557l180 572h275l-479 -1389h-283z" />
<glyph unicode="W" horiz-adv-x="1865" d="M0 1389h287l176 -662q75 -253 90 -463h6q15 202 82 461l168 664h274l168 -662q64 -251 82 -461h6q14 193 88 461l179 662h270l-416 -1389h-276l-166 662q-52 216 -78 452h-6q-22 -231 -76 -450l-168 -664h-274z" />
<glyph unicode="X" horiz-adv-x="1124" d="M-8 0l420 702l-410 687h324l237 -447h4l240 447h303l-399 -670l430 -719h-324l-260 481h-4l-258 -481h-303z" />
<glyph unicode="Y" horiz-adv-x="1146" d="M-8 1389h315l279 -562h4l280 562h295l-444 -793v-596h-275v575z" />
<glyph unicode="Z" horiz-adv-x="1130" d="M49 0v229l688 945v4h-622v211h934v-228l-689 -946v-4h725v-211h-1036z" />
<glyph unicode="[" horiz-adv-x="712" d="M168 -178v1612h487v-201h-258v-1210h258v-201h-487z" />
<glyph unicode="\" horiz-adv-x="870" d="M-10 1434h250l641 -1510h-250z" />
<glyph unicode="]" horiz-adv-x="712" d="M57 23h258v1210h-258v201h488v-1612h-488v201z" />
<glyph unicode="^" horiz-adv-x="1165" d="M94 582l361 798h256l360 -798h-252l-233 557h-6l-236 -557h-250z" />
<glyph unicode="_" horiz-adv-x="1185" d="M53 -92h1080v-201h-1080v201z" />
<glyph unicode="`" horiz-adv-x="641" d="M47 1442h191q26 0 39 -8t28 -33q74 -132 201 -324l-209 -10q-52 65 -127 178t-123 197z" />
<glyph unicode="a" horiz-adv-x="1054" d="M61 311q0 110 65.5 188t169 113t234.5 35q42 0 129 -10v18q0 73 -52 113.5t-146 40.5q-126 0 -262 -59l-29 204q169 66 350 66q207 0 310.5 -92.5t103.5 -263.5v-664h-268l-7 125h-4q-90 -145 -272 -145q-135 0 -228.5 92.5t-93.5 238.5zM348 332q0 -63 36 -102.5 t99 -39.5q176 0 176 267v16q-58 8 -110 8q-92 0 -146.5 -36.5t-54.5 -112.5z" />
<glyph unicode="b" horiz-adv-x="1234" d="M135 0v1475h275v-592h4q73 73 146 105t179 32q200 0 315 -140t115 -362q0 -149 -54.5 -271.5t-156 -194.5t-231.5 -72q-104 0 -176 32t-137 105h-4l-7 -117h-268zM410 477q0 -132 61.5 -209.5t167.5 -77.5q119 0 180.5 83.5t61.5 228.5t-62.5 226t-183.5 81 q-108 0 -166.5 -77.5t-58.5 -209.5v-45z" />
<glyph unicode="c" horiz-adv-x="970" d="M66 473q0 108 30.5 198.5t83 154t124 108t153.5 65.5t172 21q83 0 165.5 -17.5t125.5 -41.5l-29 -205q-108 53 -242 53q-139 0 -215 -80.5t-76 -232.5q0 -151 80 -228.5t207 -77.5q129 0 236 52l28 -205q-143 -57 -338 -57q-229 0 -367 131.5t-138 361.5z" />
<glyph unicode="d" horiz-adv-x="1234" d="M66 481q0 149 54.5 271.5t156 195t231.5 72.5q102 0 173.5 -32.5t139.5 -104.5h4v592h275v-1475h-269l-6 117h-4q-73 -73 -146.5 -105t-178.5 -32q-200 0 -315 139.5t-115 361.5zM354 498q0 -145 62.5 -226.5t183.5 -81.5q108 0 166.5 77.5t58.5 209.5v45 q0 132 -61.5 209.5t-167.5 77.5q-119 0 -180.5 -83t-61.5 -228z" />
<glyph unicode="e" horiz-adv-x="1069" d="M66 473q0 248 141 397.5t377 149.5q127 0 222.5 -64t143 -167.5t47.5 -229.5q0 -82 -12 -137h-649q7 -115 81 -173.5t201 -58.5q135 0 281 60l29 -205q-145 -65 -344 -65q-237 0 -377.5 128t-140.5 365zM346 610h387q-3 84 -48.5 141.5t-129.5 57.5q-80 0 -137 -55.5 t-72 -143.5z" />
<glyph unicode="f" horiz-adv-x="768" d="M47 788v211h166v23q0 222 127.5 347.5t335.5 125.5q105 0 176 -29l-29 -200q-49 18 -110 18q-103 0 -164.5 -61t-61.5 -183v-41h246v-211h-246v-788h-274v788h-166z" />
<glyph unicode="g" horiz-adv-x="1230" d="M66 489q0 148 55 269.5t155.5 191.5t227.5 70q102 0 173.5 -32.5t139.5 -104.5h4l6 116h269v-852q0 -274 -160 -421.5t-434 -147.5q-197 0 -357 72l29 209q164 -70 315 -70q165 0 248.5 78t83.5 227v35h-4q-73 -73 -146.5 -105t-178.5 -32q-194 0 -310 138.5t-116 358.5z M354 506q0 -144 62.5 -223.5t179.5 -79.5q108 0 166.5 77t58.5 209v33q0 132 -61.5 209.5t-167.5 77.5q-115 0 -176.5 -80t-61.5 -223z" />
<glyph unicode="h" horiz-adv-x="1167" d="M135 0v1475h275v-603h4q112 148 297 148q340 0 340 -381v-639h-275v600q0 102 -38 151.5t-120 49.5q-106 0 -157 -75.5t-51 -213.5v-512h-275z" />
<glyph unicode="i" horiz-adv-x="544" d="M115 1243q0 65 45.5 111.5t111.5 46.5q64 0 111 -46.5t47 -111.5q0 -66 -46.5 -112t-111.5 -46q-66 0 -111.5 46t-45.5 112zM135 0v999h275v-999h-275z" />
<glyph unicode="j" horiz-adv-x="573" d="M-125 -213q145 19 217 81t72 200v931h274v-919q0 -107 -27.5 -190t-74 -138t-116 -92.5t-146 -56t-170.5 -25.5zM143 1243q0 65 46 111.5t112 46.5q65 0 111.5 -46.5t46.5 -111.5q0 -66 -46.5 -112t-111.5 -46q-66 0 -112 46t-46 112z" />
<glyph unicode="k" horiz-adv-x="1067" d="M135 0v1475h275v-861h6q53 75 98 129l205 256h360l-417 -421l448 -578h-346l-289 381h-6l-59 -64v-317h-275z" />
<glyph unicode="l" horiz-adv-x="544" d="M135 0v1475h275v-1475h-275z" />
<glyph unicode="m" horiz-adv-x="1718" d="M135 0v999h268l7 -127h4q90 148 274 148q226 0 289 -186h6q60 96 134 141t173 45q312 0 312 -371v-649h-275v610q0 191 -147 191q-174 0 -174 -330v-471h-275v610q0 191 -147 191q-84 0 -129 -83.5t-45 -246.5v-471h-275z" />
<glyph unicode="n" horiz-adv-x="1167" d="M135 0v999h268l7 -127h4q112 148 297 148q340 0 340 -381v-639h-275v600q0 102 -38 151.5t-120 49.5q-106 0 -157 -75.5t-51 -213.5v-512h-275z" />
<glyph unicode="o" horiz-adv-x="1150" d="M66 500q0 145 60 262.5t177.5 187.5t271.5 70t271.5 -70t178 -187.5t60.5 -262.5t-60.5 -262.5t-178 -187.5t-271.5 -70t-271.5 70t-177.5 187.5t-60 262.5zM354 500q0 -141 55 -225.5t166 -84.5t166.5 84.5t55.5 225.5q0 140 -55.5 224.5t-166.5 84.5t-166 -84t-55 -225 z" />
<glyph unicode="p" horiz-adv-x="1234" d="M135 -401v1400h268l7 -116h4q73 73 146 105t179 32q200 0 315 -140t115 -362q0 -149 -54.5 -271.5t-156 -194.5t-231.5 -72q-104 0 -176 32t-137 105h-4v-518h-275zM410 477q0 -132 61.5 -209.5t167.5 -77.5q119 0 180.5 83.5t61.5 228.5t-62.5 226t-183.5 81 q-108 0 -166.5 -77.5t-58.5 -209.5v-45z" />
<glyph unicode="q" horiz-adv-x="1234" d="M66 481q0 149 54.5 271.5t156 195t231.5 72.5q102 0 173.5 -32.5t139.5 -104.5h4l6 116h269v-1400h-275v518h-4q-73 -73 -146.5 -105t-178.5 -32q-200 0 -315 139.5t-115 361.5zM354 498q0 -145 62.5 -226.5t183.5 -81.5q108 0 166.5 77.5t58.5 209.5v45 q0 132 -61.5 209.5t-167.5 77.5q-119 0 -180.5 -83t-61.5 -228z" />
<glyph unicode="r" horiz-adv-x="733" d="M135 0v999h268l7 -178h4q43 83 129 138t184 61l-6 -266q-135 -6 -211 -60q-51 -37 -75.5 -106t-24.5 -211v-377h-275z" />
<glyph unicode="s" horiz-adv-x="851" d="M61 33l29 207q136 -50 264 -50q73 0 109.5 23t36.5 63q0 38 -29.5 63.5t-89.5 43.5q-136 38 -204 109t-68 204q0 144 110 234t275 90q135 0 247 -45l-28 -205q-80 39 -193 39q-51 0 -89 -23t-38 -65q0 -80 96 -105q161 -45 228 -112t67 -191q0 -102 -61.5 -179.5 t-157 -115.5t-207.5 -38q-159 0 -297 53z" />
<glyph unicode="t" horiz-adv-x="829" d="M47 788v211h170v232h275v-232h253v-211h-253v-440q0 -158 139 -158q47 0 110 17l29 -201q-88 -26 -229 -26q-68 0 -125 17t-102.5 52.5t-71 96.5t-25.5 143v499h-170z" />
<glyph unicode="u" horiz-adv-x="1167" d="M117 360v639h274v-600q0 -102 38 -151t120 -49q106 0 157.5 75t51.5 213v512h274v-999h-268l-6 127h-4q-111 -147 -297 -147q-340 0 -340 380z" />
<glyph unicode="v" horiz-adv-x="1044" d="M-2 999h295l158 -462q53 -153 79 -297h7q24 132 81 297l158 462h277l-385 -999h-285z" />
<glyph unicode="w" horiz-adv-x="1597" d="M6 999h295l131 -469q55 -194 62 -311h6q5 122 53 307l119 473h278l119 -471q47 -185 55 -309h6q5 116 60 309l131 471h276l-342 -999h-282l-119 463q-42 177 -49 299h-6q-8 -136 -47 -297l-119 -465h-285z" />
<glyph unicode="x" horiz-adv-x="1030" d="M-8 0l362 504v6l-356 489h336l174 -294h6l176 294h316l-347 -475v-6l373 -518h-336l-192 324h-6l-191 -324h-315z" />
<glyph unicode="y" horiz-adv-x="1044" d="M-2 999h295l158 -462q53 -153 79 -297h7q24 132 81 297l158 462h277l-359 -927q-52 -138 -110 -230.5t-127.5 -148t-146 -81.5t-177.5 -34l-29 209q110 13 171.5 52t93.5 114l16 43z" />
<glyph unicode="z" horiz-adv-x="937" d="M63 0v203l474 581v4h-418v211h743v-208l-467 -576v-4h484v-211h-816z" />
<glyph unicode="{" horiz-adv-x="722" d="M125 528v201q93 3 134.5 36.5t31.5 129.5l-29 231q-19 167 93 247.5t317 80.5v-201q-92 0 -138 -39.5t-38 -113.5l28 -242q10 -97 -44.5 -156.5t-153.5 -70.5v-4q99 -11 153.5 -71t44.5 -157l-28 -241q-8 -74 38 -114t138 -40v-201q-205 0 -317 80.5t-93 247.5l29 231 q10 96 -31.5 129.5t-134.5 36.5z" />
<glyph unicode="|" horiz-adv-x="565" d="M168 -512v2048h229v-2048h-229z" />
<glyph unicode="}" horiz-adv-x="722" d="M51 4q92 0 138 40t38 114l-28 241q-12 97 43 157t155 71v4q-100 11 -155 70.5t-43 156.5l28 242q8 74 -38 113.5t-138 39.5v201q205 0 317 -80.5t93 -247.5l-29 -231q-10 -96 31.5 -129.5t134.5 -36.5v-201q-93 -3 -134.5 -36.5t-31.5 -129.5l29 -231q19 -167 -93 -247.5 t-317 -80.5v201z" />
<glyph unicode="~" horiz-adv-x="1544" d="M104 348q0 185 88 286t250 101q81 0 158 -23.5t219 -88.5q178 -81 231 -101t93 -20q43 0 69.5 44.5t26.5 141.5h201q0 -186 -87.5 -286.5t-250.5 -100.5q-80 0 -157 23.5t-220 89.5q-178 81 -231 101t-93 20q-43 0 -69.5 -45.5t-26.5 -141.5h-201z" />
<glyph unicode="&#xa5;" d="M66 1348h303l114 -277q67 -162 95 -287h6q20 100 92 287l115 277h286l-272 -543h203v-168h-295v-111h295v-168h-295v-358h-275v358h-295v168h295v111h-295v168h193z" />
<glyph unicode="&#xad;" horiz-adv-x="802" d="M119 424v201h565v-201h-565z" />
<glyph unicode="&#xc4;" horiz-adv-x="1294" d="M29 0l479 1389h283l479 -1389h-291l-129 408h-420l-127 -408h-274zM307 1591q0 59 40.5 99.5t98.5 40.5q57 0 98.5 -41t41.5 -99t-41.5 -98.5t-98.5 -40.5q-58 0 -98.5 40t-40.5 99zM494 627h292q-92 288 -143 508h-6q-51 -220 -143 -508zM721 1591q0 59 40.5 99.5 t98.5 40.5t98.5 -40.5t40.5 -99.5t-40.5 -99t-98.5 -40t-98.5 40t-40.5 99z" />
<glyph unicode="&#xcb;" horiz-adv-x="1019" d="M135 0v1389h809v-220h-534v-342h464v-219h-464v-389h553v-219h-828zM221 1591q0 59 40.5 99.5t98.5 40.5t99 -40.5t41 -99.5q0 -58 -40.5 -98.5t-99.5 -40.5q-58 0 -98.5 40t-40.5 99zM635 1591q0 59 40.5 99.5t98.5 40.5t98.5 -40.5t40.5 -99.5t-40.5 -99t-98.5 -40 t-98.5 40t-40.5 99z" />
<glyph unicode="&#xcf;" horiz-adv-x="544" d="M-74 1591q0 59 41 99.5t99 40.5t98.5 -40.5t40.5 -99.5t-40.5 -99t-98.5 -40q-59 0 -99.5 40.5t-40.5 98.5zM135 0h275v1389h-275v-1389zM340 1591q0 59 40.5 99.5t98.5 40.5t98.5 -40.5t40.5 -99.5t-40 -99t-99 -40t-99 40t-40 99z" />
<glyph unicode="&#xd6;" horiz-adv-x="1540" d="M57 694q0 150 53.5 282t146.5 227t226.5 149.5t286.5 54.5t286.5 -54.5t226.5 -149.5t146.5 -227t53.5 -282t-53.5 -282.5t-146.5 -227t-226.5 -149.5t-286.5 -55t-286.5 55t-226.5 149.5t-146.5 227t-53.5 282.5zM358 694q0 -237 114 -366t298 -129t298 129t114 366 t-114 365.5t-298 128.5t-298 -128.5t-114 -365.5zM424 1591q0 59 40.5 99.5t98.5 40.5t98.5 -40.5t40.5 -99.5t-40 -99t-99 -40t-99 40t-40 99zM838 1591q0 59 40.5 99.5t98.5 40.5t98.5 -40.5t40.5 -99.5t-40 -99t-99 -40t-99 40t-40 99z" />
<glyph unicode="&#xdc;" horiz-adv-x="1316" d="M129 438v951h274v-930q0 -126 75 -194t186 -68q116 0 194 65t78 197v930h258v-912q0 -120 -42 -215.5t-115 -156.5t-169.5 -93t-208.5 -32q-149 0 -268 53.5t-190.5 158.5t-71.5 246zM324 1591q0 59 40.5 99.5t98.5 40.5t98.5 -40.5t40.5 -99.5t-40 -99t-99 -40t-99 40 t-40 99zM737 1591q0 59 40.5 99.5t99.5 40.5q58 0 98.5 -40.5t40.5 -99.5t-40 -99t-99 -40t-99.5 40.5t-40.5 98.5z" />
<glyph unicode="&#xe4;" horiz-adv-x="1054" d="M61 311q0 110 65.5 188t169 113t234.5 35q42 0 129 -10v18q0 73 -52 113.5t-146 40.5q-126 0 -262 -59l-29 204q169 66 350 66q207 0 310.5 -92.5t103.5 -263.5v-664h-268l-7 125h-4q-90 -145 -272 -145q-135 0 -228.5 92.5t-93.5 238.5zM195 1243q0 59 40.5 99t98.5 40 q57 0 98 -40.5t41 -98.5t-41 -98.5t-98 -40.5q-58 0 -98.5 40t-40.5 99zM348 332q0 -63 36 -102.5t99 -39.5q176 0 176 267v16q-58 8 -110 8q-92 0 -146.5 -36.5t-54.5 -112.5zM608 1243q0 58 40.5 98.5t99.5 40.5q58 0 98.5 -40t40.5 -99t-40.5 -99t-98.5 -40 q-59 0 -99.5 40.5t-40.5 98.5z" />
<glyph unicode="&#xeb;" horiz-adv-x="1069" d="M66 473q0 248 141 397.5t377 149.5q127 0 222.5 -64t143 -167.5t47.5 -229.5q0 -82 -12 -137h-649q7 -115 81 -173.5t201 -58.5q135 0 281 60l29 -205q-145 -65 -344 -65q-237 0 -377.5 128t-140.5 365zM203 1243q0 59 40.5 99t98.5 40t98.5 -40t40.5 -99t-40.5 -99 t-98.5 -40t-98.5 40t-40.5 99zM346 610h387q-3 84 -48.5 141.5t-129.5 57.5q-80 0 -137 -55.5t-72 -143.5zM616 1243q0 58 40.5 98.5t99.5 40.5q58 0 98.5 -40t40.5 -99t-40.5 -99t-98.5 -40q-59 0 -99.5 40.5t-40.5 98.5z" />
<glyph unicode="&#xef;" horiz-adv-x="495" d="M-98 1243q0 59 40 99t99 40q57 0 98 -40.5t41 -98.5t-41 -98.5t-98 -40.5q-59 0 -99 40t-40 99zM111 0v999h274v-999h-274zM315 1243q0 58 40.5 98.5t99.5 40.5t99 -40t40 -99t-40 -99t-99 -40t-99.5 40.5t-40.5 98.5z" />
<glyph unicode="&#xf6;" horiz-adv-x="1150" d="M66 500q0 145 60 262.5t177.5 187.5t271.5 70t271.5 -70t178 -187.5t60.5 -262.5t-60.5 -262.5t-178 -187.5t-271.5 -70t-271.5 70t-177.5 187.5t-60 262.5zM229 1243q0 58 40.5 98.5t99.5 40.5q57 0 98 -40.5t41 -98.5t-41 -98.5t-98 -40.5q-59 0 -99.5 40.5t-40.5 98.5 zM354 500q0 -141 55 -225.5t166 -84.5t166.5 84.5t55.5 225.5q0 140 -55.5 224.5t-166.5 84.5t-166 -84t-55 -225zM643 1243q0 59 40.5 99t98.5 40q59 0 99.5 -40.5t40.5 -98.5t-40.5 -98.5t-99.5 -40.5q-58 0 -98.5 40t-40.5 99z" />
<glyph unicode="&#xfc;" horiz-adv-x="1167" d="M117 360v639h274v-600q0 -102 38 -151t120 -49q106 0 157.5 75t51.5 213v512h274v-999h-268l-6 127h-4q-111 -147 -297 -147q-340 0 -340 380zM233 1243q0 58 40.5 98.5t99.5 40.5q57 0 98 -40.5t41 -98.5t-41 -98.5t-98 -40.5q-59 0 -99.5 40.5t-40.5 98.5zM647 1243 q0 59 40.5 99t98.5 40q59 0 99.5 -40.5t40.5 -98.5t-40.5 -98.5t-99.5 -40.5q-58 0 -98.5 40t-40.5 99z" />
<glyph unicode="&#xff;" horiz-adv-x="1044" d="M-2 999h295l158 -462q53 -153 79 -297h7q24 132 81 297l158 462h277l-359 -927q-52 -138 -110 -230.5t-127.5 -148t-146 -81.5t-177.5 -34l-29 209q110 13 171.5 52t93.5 114l16 43zM201 1243q0 59 40.5 99t98.5 40t98.5 -40t40.5 -99t-40.5 -99t-98.5 -40t-98.5 40 t-40.5 99zM614 1243q0 58 40.5 98.5t99.5 40.5q58 0 98.5 -40t40.5 -99t-40.5 -99t-98.5 -40q-59 0 -99.5 40.5t-40.5 98.5z" />
<glyph unicode="&#x178;" horiz-adv-x="1146" d="M-8 1389h315l279 -562h4l280 562h295l-444 -793v-596h-275v575zM242 1591q0 59 40.5 99.5t98.5 40.5q57 0 98 -41t41 -99t-41 -98.5t-98 -40.5q-59 0 -99 40t-40 99zM655 1591q0 59 40.5 99.5t99.5 40.5q58 0 98.5 -40.5t40.5 -99.5t-40 -99t-99 -40t-99.5 40.5 t-40.5 98.5z" />
<glyph unicode="&#x2000;" horiz-adv-x="865" />
<glyph unicode="&#x2001;" horiz-adv-x="1731" />
<glyph unicode="&#x2002;" horiz-adv-x="865" />
<glyph unicode="&#x2003;" horiz-adv-x="1731" />
<glyph unicode="&#x2004;" horiz-adv-x="577" />
<glyph unicode="&#x2005;" horiz-adv-x="432" />
<glyph unicode="&#x2006;" horiz-adv-x="288" />
<glyph unicode="&#x2007;" horiz-adv-x="288" />
<glyph unicode="&#x2008;" horiz-adv-x="216" />
<glyph unicode="&#x2009;" horiz-adv-x="346" />
<glyph unicode="&#x200a;" horiz-adv-x="96" />
<glyph unicode="&#x2010;" horiz-adv-x="802" d="M119 424v201h565v-201h-565z" />
<glyph unicode="&#x2011;" horiz-adv-x="802" d="M119 424v201h565v-201h-565z" />
<glyph unicode="&#x2012;" horiz-adv-x="802" d="M119 424v201h565v-201h-565z" />
<glyph unicode="&#x2013;" horiz-adv-x="1261" d="M119 424v201h1024v-201h-1024z" />
<glyph unicode="&#x2014;" horiz-adv-x="2285" d="M119 424v201h2048v-201h-2048z" />
<glyph unicode="&#x2018;" horiz-adv-x="626" d="M90 848q88 268 215 567l244 27q-86 -273 -141 -494q-24 -100 -148 -100h-170z" />
<glyph unicode="&#x2019;" horiz-adv-x="626" d="M78 848q92 289 141 493q24 101 148 101h170q-89 -272 -215 -568z" />
<glyph unicode="&#x201c;" horiz-adv-x="1067" d="M90 848q88 268 215 567l244 27q-86 -273 -141 -494q-24 -100 -148 -100h-170zM530 848q88 268 215 567l244 27q-86 -273 -141 -494q-24 -100 -148 -100h-170z" />
<glyph unicode="&#x201d;" horiz-adv-x="1067" d="M78 848q92 289 141 493q24 101 148 101h170q-89 -272 -215 -568zM518 848q92 289 141 493q24 101 148 101h170q-89 -272 -215 -568z" />
<glyph unicode="&#x202f;" horiz-adv-x="346" />
<glyph unicode="&#x205f;" horiz-adv-x="432" />
<glyph unicode="&#xe000;" horiz-adv-x="1003" d="M0 0v1004h1004v-1004h-1004z" />
</font>
</defs>
</svg>
